<mxfile host="app.diagrams.net" modified="2023-04-11T06:10:47.682Z" agent="Mozilla/5.0 (Windows NT 10.0; Win64; x64) AppleWebKit/537.36 (KHTML, like Gecko) Chrome/112.0.0.0 Safari/537.36 Edg/112.0.1722.34" etag="z5eba0Pha0hHbzPne5BT" version="21.1.5" type="device">
  <diagram name="Page-1" id="E1NDZ-VViNBvJMzi1OxL">
    <mxGraphModel dx="875" dy="516" grid="1" gridSize="10" guides="1" tooltips="1" connect="1" arrows="1" fold="1" page="1" pageScale="1" pageWidth="850" pageHeight="1100" math="0" shadow="0">
      <root>
        <mxCell id="0" />
        <mxCell id="1" parent="0" />
        <mxCell id="ol67PSo45CjO-s_Mp2IG-5" value="user" style="rounded=1;whiteSpace=wrap;html=1;" parent="1" vertex="1">
          <mxGeometry x="200" y="160" width="60" height="20" as="geometry" />
        </mxCell>
        <mxCell id="ol67PSo45CjO-s_Mp2IG-8" value="director" style="rounded=1;whiteSpace=wrap;html=1;" parent="1" vertex="1">
          <mxGeometry x="380" y="160" width="60" height="20" as="geometry" />
        </mxCell>
        <mxCell id="ol67PSo45CjO-s_Mp2IG-9" value="dp_head" style="rounded=1;whiteSpace=wrap;html=1;" parent="1" vertex="1">
          <mxGeometry x="370" y="100" width="80" height="20" as="geometry" />
        </mxCell>
        <mxCell id="ol67PSo45CjO-s_Mp2IG-10" value="employee" style="rounded=1;whiteSpace=wrap;html=1;" parent="1" vertex="1">
          <mxGeometry x="370" y="225" width="80" height="20" as="geometry" />
        </mxCell>
        <mxCell id="ol67PSo45CjO-s_Mp2IG-14" value="d" style="ellipse;whiteSpace=wrap;html=1;" parent="1" vertex="1">
          <mxGeometry x="310" y="160" width="20" height="20" as="geometry" />
        </mxCell>
        <mxCell id="ol67PSo45CjO-s_Mp2IG-18" value="" style="endArrow=none;html=1;rounded=0;" parent="1" source="ol67PSo45CjO-s_Mp2IG-14" target="ol67PSo45CjO-s_Mp2IG-8" edge="1">
          <mxGeometry width="50" height="50" relative="1" as="geometry">
            <mxPoint x="370" y="270" as="sourcePoint" />
            <mxPoint x="420" y="220" as="targetPoint" />
          </mxGeometry>
        </mxCell>
        <mxCell id="ol67PSo45CjO-s_Mp2IG-19" value="" style="endArrow=none;html=1;rounded=0;" parent="1" source="ol67PSo45CjO-s_Mp2IG-14" target="ol67PSo45CjO-s_Mp2IG-9" edge="1">
          <mxGeometry width="50" height="50" relative="1" as="geometry">
            <mxPoint x="339" y="176" as="sourcePoint" />
            <mxPoint x="430" y="130" as="targetPoint" />
          </mxGeometry>
        </mxCell>
        <mxCell id="ol67PSo45CjO-s_Mp2IG-20" value="" style="endArrow=none;html=1;rounded=0;" parent="1" source="ol67PSo45CjO-s_Mp2IG-14" target="ol67PSo45CjO-s_Mp2IG-10" edge="1">
          <mxGeometry width="50" height="50" relative="1" as="geometry">
            <mxPoint x="339" y="109" as="sourcePoint" />
            <mxPoint x="434" y="145" as="targetPoint" />
          </mxGeometry>
        </mxCell>
        <mxCell id="ol67PSo45CjO-s_Mp2IG-21" value="" style="endArrow=none;html=1;rounded=0;shape=link;" parent="1" source="ol67PSo45CjO-s_Mp2IG-14" target="ol67PSo45CjO-s_Mp2IG-5" edge="1">
          <mxGeometry width="50" height="50" relative="1" as="geometry">
            <mxPoint x="338" y="99" as="sourcePoint" />
            <mxPoint x="405" y="55" as="targetPoint" />
          </mxGeometry>
        </mxCell>
        <mxCell id="ol67PSo45CjO-s_Mp2IG-22" value="has" style="rhombus;whiteSpace=wrap;html=1;" parent="1" vertex="1">
          <mxGeometry x="190" y="210" width="80" height="40" as="geometry" />
        </mxCell>
        <mxCell id="ol67PSo45CjO-s_Mp2IG-23" value="" style="endArrow=none;html=1;rounded=0;shape=link;" parent="1" source="ol67PSo45CjO-s_Mp2IG-22" target="ol67PSo45CjO-s_Mp2IG-5" edge="1">
          <mxGeometry width="50" height="50" relative="1" as="geometry">
            <mxPoint x="320" y="180" as="sourcePoint" />
            <mxPoint x="270" y="180" as="targetPoint" />
          </mxGeometry>
        </mxCell>
        <mxCell id="ol67PSo45CjO-s_Mp2IG-24" value="account" style="rounded=1;whiteSpace=wrap;html=1;" parent="1" vertex="1">
          <mxGeometry x="190" y="285" width="80" height="20" as="geometry" />
        </mxCell>
        <mxCell id="ol67PSo45CjO-s_Mp2IG-25" value="" style="endArrow=none;html=1;rounded=0;shape=link;" parent="1" source="ol67PSo45CjO-s_Mp2IG-24" target="ol67PSo45CjO-s_Mp2IG-22" edge="1">
          <mxGeometry width="50" height="50" relative="1" as="geometry">
            <mxPoint x="280" y="240" as="sourcePoint" />
            <mxPoint x="320" y="240" as="targetPoint" />
          </mxGeometry>
        </mxCell>
        <mxCell id="ol67PSo45CjO-s_Mp2IG-35" value="task" style="rounded=1;whiteSpace=wrap;html=1;" parent="1" vertex="1">
          <mxGeometry x="600" y="225" width="80" height="20" as="geometry" />
        </mxCell>
        <mxCell id="ol67PSo45CjO-s_Mp2IG-36" value="" style="endArrow=none;html=1;rounded=0;" parent="1" source="ol67PSo45CjO-s_Mp2IG-41" target="ol67PSo45CjO-s_Mp2IG-35" edge="1">
          <mxGeometry width="50" height="50" relative="1" as="geometry">
            <mxPoint x="650" y="170" as="sourcePoint" />
            <mxPoint x="630" y="150" as="targetPoint" />
          </mxGeometry>
        </mxCell>
        <mxCell id="ol67PSo45CjO-s_Mp2IG-37" value="belongto" style="rhombus;whiteSpace=wrap;html=1;" parent="1" vertex="1">
          <mxGeometry x="490" y="90" width="80" height="40" as="geometry" />
        </mxCell>
        <mxCell id="ol67PSo45CjO-s_Mp2IG-38" value="" style="endArrow=none;html=1;rounded=0;shape=link;" parent="1" source="ol67PSo45CjO-s_Mp2IG-37" edge="1">
          <mxGeometry width="50" height="50" relative="1" as="geometry">
            <mxPoint x="490" y="175" as="sourcePoint" />
            <mxPoint x="450" y="110" as="targetPoint" />
            <Array as="points" />
          </mxGeometry>
        </mxCell>
        <mxCell id="ol67PSo45CjO-s_Mp2IG-39" value="department" style="rounded=1;whiteSpace=wrap;html=1;" parent="1" vertex="1">
          <mxGeometry x="600" y="100" width="80" height="20" as="geometry" />
        </mxCell>
        <mxCell id="ol67PSo45CjO-s_Mp2IG-40" value="" style="endArrow=none;html=1;rounded=0;shape=link;" parent="1" source="ol67PSo45CjO-s_Mp2IG-39" target="ol67PSo45CjO-s_Mp2IG-37" edge="1">
          <mxGeometry width="50" height="50" relative="1" as="geometry">
            <mxPoint x="420" y="70" as="sourcePoint" />
            <mxPoint x="420" y="110" as="targetPoint" />
          </mxGeometry>
        </mxCell>
        <mxCell id="ol67PSo45CjO-s_Mp2IG-41" value="includes" style="rhombus;whiteSpace=wrap;html=1;" parent="1" vertex="1">
          <mxGeometry x="600" y="150" width="80" height="40" as="geometry" />
        </mxCell>
        <mxCell id="ol67PSo45CjO-s_Mp2IG-43" value="" style="endArrow=none;html=1;rounded=0;" parent="1" source="ol67PSo45CjO-s_Mp2IG-39" target="ol67PSo45CjO-s_Mp2IG-41" edge="1">
          <mxGeometry width="50" height="50" relative="1" as="geometry">
            <mxPoint x="650" y="200" as="sourcePoint" />
            <mxPoint x="650" y="240" as="targetPoint" />
          </mxGeometry>
        </mxCell>
        <mxCell id="ol67PSo45CjO-s_Mp2IG-44" value="1" style="text;html=1;align=center;verticalAlign=middle;resizable=0;points=[];autosize=1;strokeColor=none;fillColor=none;" parent="1" vertex="1">
          <mxGeometry x="230" y="245" width="30" height="30" as="geometry" />
        </mxCell>
        <mxCell id="ol67PSo45CjO-s_Mp2IG-45" value="1" style="text;html=1;align=center;verticalAlign=middle;resizable=0;points=[];autosize=1;strokeColor=none;fillColor=none;" parent="1" vertex="1">
          <mxGeometry x="230" y="190" width="30" height="30" as="geometry" />
        </mxCell>
        <mxCell id="ol67PSo45CjO-s_Mp2IG-46" value="1" style="text;html=1;align=center;verticalAlign=middle;resizable=0;points=[];autosize=1;strokeColor=none;fillColor=none;" parent="1" vertex="1">
          <mxGeometry x="470" y="80" width="30" height="30" as="geometry" />
        </mxCell>
        <mxCell id="ol67PSo45CjO-s_Mp2IG-47" value="1" style="text;html=1;align=center;verticalAlign=middle;resizable=0;points=[];autosize=1;strokeColor=none;fillColor=none;" parent="1" vertex="1">
          <mxGeometry x="560" y="80" width="30" height="30" as="geometry" />
        </mxCell>
        <mxCell id="ol67PSo45CjO-s_Mp2IG-48" value="1" style="text;html=1;align=center;verticalAlign=middle;resizable=0;points=[];autosize=1;strokeColor=none;fillColor=none;" parent="1" vertex="1">
          <mxGeometry x="640" y="130" width="30" height="30" as="geometry" />
        </mxCell>
        <mxCell id="ol67PSo45CjO-s_Mp2IG-49" value="N" style="text;html=1;align=center;verticalAlign=middle;resizable=0;points=[];autosize=1;strokeColor=none;fillColor=none;" parent="1" vertex="1">
          <mxGeometry x="640" y="180" width="30" height="30" as="geometry" />
        </mxCell>
        <mxCell id="ol67PSo45CjO-s_Mp2IG-50" value="&lt;u&gt;username&lt;/u&gt;" style="ellipse;whiteSpace=wrap;html=1;" parent="1" vertex="1">
          <mxGeometry x="90" y="260" width="80" height="30" as="geometry" />
        </mxCell>
        <mxCell id="ol67PSo45CjO-s_Mp2IG-51" value="password" style="ellipse;whiteSpace=wrap;html=1;" parent="1" vertex="1">
          <mxGeometry x="90" y="305" width="80" height="30" as="geometry" />
        </mxCell>
        <mxCell id="ol67PSo45CjO-s_Mp2IG-52" value="" style="endArrow=none;html=1;rounded=0;" parent="1" source="ol67PSo45CjO-s_Mp2IG-24" target="ol67PSo45CjO-s_Mp2IG-50" edge="1">
          <mxGeometry width="50" height="50" relative="1" as="geometry">
            <mxPoint x="470" y="245" as="sourcePoint" />
            <mxPoint x="520" y="195" as="targetPoint" />
          </mxGeometry>
        </mxCell>
        <mxCell id="ol67PSo45CjO-s_Mp2IG-53" value="" style="endArrow=none;html=1;rounded=0;" parent="1" source="ol67PSo45CjO-s_Mp2IG-24" target="ol67PSo45CjO-s_Mp2IG-51" edge="1">
          <mxGeometry width="50" height="50" relative="1" as="geometry">
            <mxPoint x="227" y="295" as="sourcePoint" />
            <mxPoint x="178" y="258" as="targetPoint" />
          </mxGeometry>
        </mxCell>
        <mxCell id="ol67PSo45CjO-s_Mp2IG-54" value="name" style="ellipse;whiteSpace=wrap;html=1;" parent="1" vertex="1">
          <mxGeometry x="710" y="197.5" width="70" height="30" as="geometry" />
        </mxCell>
        <mxCell id="ol67PSo45CjO-s_Mp2IG-55" value="description" style="ellipse;whiteSpace=wrap;html=1;" parent="1" vertex="1">
          <mxGeometry x="700" y="237.5" width="90" height="30" as="geometry" />
        </mxCell>
        <mxCell id="ol67PSo45CjO-s_Mp2IG-56" value="deadline" style="ellipse;whiteSpace=wrap;html=1;" parent="1" vertex="1">
          <mxGeometry x="700" y="157.5" width="90" height="30" as="geometry" />
        </mxCell>
        <mxCell id="ol67PSo45CjO-s_Mp2IG-57" value="has" style="rhombus;whiteSpace=wrap;html=1;" parent="1" vertex="1">
          <mxGeometry x="600" y="280" width="80" height="40" as="geometry" />
        </mxCell>
        <mxCell id="ol67PSo45CjO-s_Mp2IG-58" value="submission" style="rounded=1;whiteSpace=wrap;html=1;" parent="1" vertex="1">
          <mxGeometry x="600" y="350" width="80" height="20" as="geometry" />
        </mxCell>
        <mxCell id="ol67PSo45CjO-s_Mp2IG-59" value="" style="endArrow=none;html=1;rounded=0;" parent="1" source="ol67PSo45CjO-s_Mp2IG-35" target="ol67PSo45CjO-s_Mp2IG-57" edge="1">
          <mxGeometry width="50" height="50" relative="1" as="geometry">
            <mxPoint x="650" y="190" as="sourcePoint" />
            <mxPoint x="650" y="220" as="targetPoint" />
          </mxGeometry>
        </mxCell>
        <mxCell id="ol67PSo45CjO-s_Mp2IG-60" value="" style="endArrow=none;html=1;rounded=0;" parent="1" source="ol67PSo45CjO-s_Mp2IG-57" target="ol67PSo45CjO-s_Mp2IG-58" edge="1">
          <mxGeometry width="50" height="50" relative="1" as="geometry">
            <mxPoint x="650" y="260" as="sourcePoint" />
            <mxPoint x="650" y="290" as="targetPoint" />
          </mxGeometry>
        </mxCell>
        <mxCell id="ol67PSo45CjO-s_Mp2IG-61" value="1" style="text;html=1;align=center;verticalAlign=middle;resizable=0;points=[];autosize=1;strokeColor=none;fillColor=none;" parent="1" vertex="1">
          <mxGeometry x="640" y="260" width="30" height="30" as="geometry" />
        </mxCell>
        <mxCell id="ol67PSo45CjO-s_Mp2IG-62" value="N" style="text;html=1;align=center;verticalAlign=middle;resizable=0;points=[];autosize=1;strokeColor=none;fillColor=none;" parent="1" vertex="1">
          <mxGeometry x="640" y="310" width="30" height="30" as="geometry" />
        </mxCell>
        <mxCell id="ol67PSo45CjO-s_Mp2IG-64" value="" style="endArrow=none;html=1;rounded=0;" parent="1" source="ol67PSo45CjO-s_Mp2IG-35" target="ol67PSo45CjO-s_Mp2IG-54" edge="1">
          <mxGeometry width="50" height="50" relative="1" as="geometry">
            <mxPoint x="650" y="240" as="sourcePoint" />
            <mxPoint x="650" y="310" as="targetPoint" />
          </mxGeometry>
        </mxCell>
        <mxCell id="ol67PSo45CjO-s_Mp2IG-65" value="" style="endArrow=none;html=1;rounded=0;" parent="1" source="ol67PSo45CjO-s_Mp2IG-35" target="ol67PSo45CjO-s_Mp2IG-56" edge="1">
          <mxGeometry width="50" height="50" relative="1" as="geometry">
            <mxPoint x="690" y="221" as="sourcePoint" />
            <mxPoint x="734" y="212" as="targetPoint" />
          </mxGeometry>
        </mxCell>
        <mxCell id="ol67PSo45CjO-s_Mp2IG-67" value="" style="endArrow=none;html=1;rounded=0;" parent="1" source="ol67PSo45CjO-s_Mp2IG-35" target="ol67PSo45CjO-s_Mp2IG-55" edge="1">
          <mxGeometry width="50" height="50" relative="1" as="geometry">
            <mxPoint x="690" y="235" as="sourcePoint" />
            <mxPoint x="723" y="240" as="targetPoint" />
          </mxGeometry>
        </mxCell>
        <mxCell id="ol67PSo45CjO-s_Mp2IG-68" value="status" style="ellipse;whiteSpace=wrap;html=1;" parent="1" vertex="1">
          <mxGeometry x="710" y="282.5" width="70" height="30" as="geometry" />
        </mxCell>
        <mxCell id="ol67PSo45CjO-s_Mp2IG-69" value="" style="endArrow=none;html=1;rounded=0;" parent="1" source="ol67PSo45CjO-s_Mp2IG-35" target="ol67PSo45CjO-s_Mp2IG-68" edge="1">
          <mxGeometry width="50" height="50" relative="1" as="geometry">
            <mxPoint x="612" y="235" as="sourcePoint" />
            <mxPoint x="585" y="228" as="targetPoint" />
          </mxGeometry>
        </mxCell>
        <mxCell id="ol67PSo45CjO-s_Mp2IG-72" value="date" style="ellipse;whiteSpace=wrap;html=1;" parent="1" vertex="1">
          <mxGeometry x="710" y="345" width="70" height="30" as="geometry" />
        </mxCell>
        <mxCell id="ol67PSo45CjO-s_Mp2IG-73" value="" style="endArrow=none;html=1;rounded=0;" parent="1" source="ol67PSo45CjO-s_Mp2IG-58" target="ol67PSo45CjO-s_Mp2IG-72" edge="1">
          <mxGeometry width="50" height="50" relative="1" as="geometry">
            <mxPoint x="690" y="360" as="sourcePoint" />
            <mxPoint x="724" y="352" as="targetPoint" />
          </mxGeometry>
        </mxCell>
        <mxCell id="ol67PSo45CjO-s_Mp2IG-74" value="comments" style="ellipse;whiteSpace=wrap;html=1;" parent="1" vertex="1">
          <mxGeometry x="710" y="390" width="70" height="30" as="geometry" />
        </mxCell>
        <mxCell id="ol67PSo45CjO-s_Mp2IG-75" value="" style="endArrow=none;html=1;rounded=0;" parent="1" source="ol67PSo45CjO-s_Mp2IG-58" target="ol67PSo45CjO-s_Mp2IG-74" edge="1">
          <mxGeometry width="50" height="50" relative="1" as="geometry">
            <mxPoint x="612" y="235" as="sourcePoint" />
            <mxPoint x="585" y="228" as="targetPoint" />
          </mxGeometry>
        </mxCell>
        <mxCell id="ol67PSo45CjO-s_Mp2IG-77" value="dp_name" style="ellipse;whiteSpace=wrap;html=1;" parent="1" vertex="1">
          <mxGeometry x="700" y="95" width="90" height="30" as="geometry" />
        </mxCell>
        <mxCell id="ol67PSo45CjO-s_Mp2IG-78" value="" style="endArrow=none;html=1;rounded=0;" parent="1" source="ol67PSo45CjO-s_Mp2IG-39" target="ol67PSo45CjO-s_Mp2IG-77" edge="1">
          <mxGeometry width="50" height="50" relative="1" as="geometry">
            <mxPoint x="690" y="265" as="sourcePoint" />
            <mxPoint x="718" y="271" as="targetPoint" />
          </mxGeometry>
        </mxCell>
        <mxCell id="ol67PSo45CjO-s_Mp2IG-84" value="belongto" style="rhombus;whiteSpace=wrap;html=1;" parent="1" vertex="1">
          <mxGeometry x="490" y="150" width="80" height="40" as="geometry" />
        </mxCell>
        <mxCell id="ol67PSo45CjO-s_Mp2IG-85" value="" style="endArrow=none;html=1;rounded=0;" parent="1" source="ol67PSo45CjO-s_Mp2IG-84" target="ol67PSo45CjO-s_Mp2IG-10" edge="1">
          <mxGeometry width="50" height="50" relative="1" as="geometry">
            <mxPoint x="500" y="120" as="sourcePoint" />
            <mxPoint x="460" y="120" as="targetPoint" />
            <Array as="points" />
          </mxGeometry>
        </mxCell>
        <mxCell id="ol67PSo45CjO-s_Mp2IG-86" value="" style="endArrow=none;html=1;rounded=0;" parent="1" source="ol67PSo45CjO-s_Mp2IG-39" target="ol67PSo45CjO-s_Mp2IG-84" edge="1">
          <mxGeometry width="50" height="50" relative="1" as="geometry">
            <mxPoint x="500" y="120" as="sourcePoint" />
            <mxPoint x="460" y="120" as="targetPoint" />
            <Array as="points" />
          </mxGeometry>
        </mxCell>
        <mxCell id="ol67PSo45CjO-s_Mp2IG-87" value="1" style="text;html=1;align=center;verticalAlign=middle;resizable=0;points=[];autosize=1;strokeColor=none;fillColor=none;" parent="1" vertex="1">
          <mxGeometry x="560" y="145" width="30" height="30" as="geometry" />
        </mxCell>
        <mxCell id="ol67PSo45CjO-s_Mp2IG-90" value="N" style="text;html=1;align=center;verticalAlign=middle;resizable=0;points=[];autosize=1;strokeColor=none;fillColor=none;" parent="1" vertex="1">
          <mxGeometry x="470" y="170" width="30" height="30" as="geometry" />
        </mxCell>
        <mxCell id="7OtTAtOsc2Cw0seMxl-h-1" value="name" style="ellipse;whiteSpace=wrap;html=1;" vertex="1" parent="1">
          <mxGeometry x="90" y="110" width="80" height="30" as="geometry" />
        </mxCell>
        <mxCell id="7OtTAtOsc2Cw0seMxl-h-2" value="gender" style="ellipse;whiteSpace=wrap;html=1;" vertex="1" parent="1">
          <mxGeometry x="90" y="155" width="80" height="30" as="geometry" />
        </mxCell>
        <mxCell id="7OtTAtOsc2Cw0seMxl-h-3" value="" style="endArrow=none;html=1;rounded=0;" edge="1" parent="1" source="7OtTAtOsc2Cw0seMxl-h-2" target="ol67PSo45CjO-s_Mp2IG-5">
          <mxGeometry width="50" height="50" relative="1" as="geometry">
            <mxPoint x="240" y="315" as="sourcePoint" />
            <mxPoint x="240" y="350" as="targetPoint" />
          </mxGeometry>
        </mxCell>
        <mxCell id="7OtTAtOsc2Cw0seMxl-h-4" value="" style="endArrow=none;html=1;rounded=0;" edge="1" parent="1" source="7OtTAtOsc2Cw0seMxl-h-1" target="ol67PSo45CjO-s_Mp2IG-5">
          <mxGeometry width="50" height="50" relative="1" as="geometry">
            <mxPoint x="179" y="174" as="sourcePoint" />
            <mxPoint x="210" y="177" as="targetPoint" />
          </mxGeometry>
        </mxCell>
        <mxCell id="7OtTAtOsc2Cw0seMxl-h-5" value="role" style="ellipse;whiteSpace=wrap;html=1;" vertex="1" parent="1">
          <mxGeometry x="190" y="110" width="80" height="30" as="geometry" />
        </mxCell>
        <mxCell id="7OtTAtOsc2Cw0seMxl-h-6" value="" style="endArrow=none;html=1;rounded=0;" edge="1" parent="1" source="7OtTAtOsc2Cw0seMxl-h-5" target="ol67PSo45CjO-s_Mp2IG-5">
          <mxGeometry width="50" height="50" relative="1" as="geometry">
            <mxPoint x="161" y="133" as="sourcePoint" />
            <mxPoint x="223" y="170" as="targetPoint" />
          </mxGeometry>
        </mxCell>
        <mxCell id="7OtTAtOsc2Cw0seMxl-h-7" value="role" style="text;html=1;align=center;verticalAlign=middle;resizable=0;points=[];autosize=1;strokeColor=none;fillColor=none;" vertex="1" parent="1">
          <mxGeometry x="270" y="145" width="40" height="30" as="geometry" />
        </mxCell>
        <mxCell id="7OtTAtOsc2Cw0seMxl-h-8" value="" style="endArrow=none;html=1;rounded=0;" edge="1" parent="1" source="7OtTAtOsc2Cw0seMxl-h-9" target="ol67PSo45CjO-s_Mp2IG-10">
          <mxGeometry width="50" height="50" relative="1" as="geometry">
            <mxPoint x="521" y="190" as="sourcePoint" />
            <mxPoint x="438" y="235" as="targetPoint" />
            <Array as="points" />
          </mxGeometry>
        </mxCell>
        <mxCell id="7OtTAtOsc2Cw0seMxl-h-9" value="do" style="rhombus;whiteSpace=wrap;html=1;" vertex="1" parent="1">
          <mxGeometry x="490" y="215" width="80" height="40" as="geometry" />
        </mxCell>
        <mxCell id="7OtTAtOsc2Cw0seMxl-h-10" value="" style="endArrow=none;html=1;rounded=0;" edge="1" parent="1" source="7OtTAtOsc2Cw0seMxl-h-9" target="ol67PSo45CjO-s_Mp2IG-35">
          <mxGeometry width="50" height="50" relative="1" as="geometry">
            <mxPoint x="500" y="245" as="sourcePoint" />
            <mxPoint x="460" y="245" as="targetPoint" />
            <Array as="points" />
          </mxGeometry>
        </mxCell>
        <mxCell id="7OtTAtOsc2Cw0seMxl-h-11" value="N" style="text;html=1;align=center;verticalAlign=middle;resizable=0;points=[];autosize=1;strokeColor=none;fillColor=none;" vertex="1" parent="1">
          <mxGeometry x="470" y="230" width="30" height="30" as="geometry" />
        </mxCell>
        <mxCell id="7OtTAtOsc2Cw0seMxl-h-12" value="M" style="text;html=1;align=center;verticalAlign=middle;resizable=0;points=[];autosize=1;strokeColor=none;fillColor=none;" vertex="1" parent="1">
          <mxGeometry x="560" y="230" width="30" height="30" as="geometry" />
        </mxCell>
        <mxCell id="7OtTAtOsc2Cw0seMxl-h-13" value="emp_id" style="ellipse;whiteSpace=wrap;html=1;" vertex="1" parent="1">
          <mxGeometry x="500" y="345" width="70" height="30" as="geometry" />
        </mxCell>
        <mxCell id="7OtTAtOsc2Cw0seMxl-h-14" value="" style="endArrow=none;html=1;rounded=0;" edge="1" parent="1" source="ol67PSo45CjO-s_Mp2IG-58" target="7OtTAtOsc2Cw0seMxl-h-13">
          <mxGeometry width="50" height="50" relative="1" as="geometry">
            <mxPoint x="673" y="380" as="sourcePoint" />
            <mxPoint x="730" y="404" as="targetPoint" />
          </mxGeometry>
        </mxCell>
        <mxCell id="7OtTAtOsc2Cw0seMxl-h-15" value="content" style="ellipse;whiteSpace=wrap;html=1;" vertex="1" parent="1">
          <mxGeometry x="500" y="390" width="70" height="30" as="geometry" />
        </mxCell>
        <mxCell id="7OtTAtOsc2Cw0seMxl-h-16" value="" style="endArrow=none;html=1;rounded=0;" edge="1" parent="1" source="ol67PSo45CjO-s_Mp2IG-58" target="7OtTAtOsc2Cw0seMxl-h-15">
          <mxGeometry width="50" height="50" relative="1" as="geometry">
            <mxPoint x="627" y="380" as="sourcePoint" />
            <mxPoint x="570" y="404" as="targetPoint" />
          </mxGeometry>
        </mxCell>
        <mxCell id="7OtTAtOsc2Cw0seMxl-h-18" value="&lt;u&gt;id&lt;/u&gt;" style="ellipse;whiteSpace=wrap;html=1;" vertex="1" parent="1">
          <mxGeometry x="605" y="390" width="70" height="30" as="geometry" />
        </mxCell>
        <mxCell id="7OtTAtOsc2Cw0seMxl-h-19" value="" style="endArrow=none;html=1;rounded=0;" edge="1" parent="1" source="ol67PSo45CjO-s_Mp2IG-58" target="7OtTAtOsc2Cw0seMxl-h-18">
          <mxGeometry width="50" height="50" relative="1" as="geometry">
            <mxPoint x="610" y="370" as="sourcePoint" />
            <mxPoint x="580" y="370" as="targetPoint" />
          </mxGeometry>
        </mxCell>
      </root>
    </mxGraphModel>
  </diagram>
</mxfile>
